# xmcd
#
# Track frame offsets:
#	150
#	975
#	7987
#	14770
#	20782
#	28422
#	35752
#	43612
#	50702
#	56037
#	63847
#	70632
#	78387
#	86607
#	94040
#	101402
#	108762
#	117822
#	125770
#	133295
#	141205
#	146915
#	153872
#	162147
#
# Disc length: 2267 seconds
#
# Revision: 1
# Processed by: cddbd v1.5.1PL2 Copyright (c) Steve Scherf et al.
# Submitted via: audiograbber 1.83.01
#
DISCID=4808d918
DTITLE=The Great Country and Trucker Party - The Great Country and Trucker Party
DYEAR=1900
DGENRE=
TTITLE0=Dallas Theme
TTITLE1=Bonanza
TTITLE2=Roving Gambler
TTITLE3=Deep In The Heart Of Texas
TTITLE4=San Antonio Rose
TTITLE5=Some Broken Hearts Never Mend
TTITLE6=Please Release Me
TTITLE7=Detroit City
TTITLE8=Take It Easy Altes Haus
TTITLE9=On Top Of Old Smokey
TTITLE10=Green, Green Grass Of Home
TTITLE11=Lieber Langsam ...
TTITLE12=Polly Wolly Doodle
TTITLE13=Oh My Darling Clementine
TTITLE14=Ghostriders In The Sky
TTITLE15=She'll Be Comin' Round Th Mountain
TTITLE16=Tom Dooley
TTITLE17=Es Hängt Ein Pferdehalfter An Der Wand
TTITLE18=Banks Of Ohio
TTITLE19=Ludille
TTITLE20=Ich Möcht' So Gern Dave Dudley Hör'n
TTITLE21=Goin' Up Cripple Creek
TTITLE22=Oh Susanna
TTITLE23=der wilde, wilde Westen
EXTD=
EXTT0=
EXTT1=
EXTT2=
EXTT3=
EXTT4=
EXTT5=
EXTT6=
EXTT7=
EXTT8=
EXTT9=
EXTT10=
EXTT11=
EXTT12=
EXTT13=
EXTT14=
EXTT15=
EXTT16=
EXTT17=
EXTT18=
EXTT19=
EXTT20=
EXTT21=
EXTT22=
EXTT23=
PLAYORDER=
